# xmcd
#
# Track frame offsets:
# 150
# 9738
# 24436
# 43791
# 66245
# 82482
# 101055
# 126368
# 145666
# 165014
# 185804
# 203222
# 223726
# 242244
# 264240
# 283347
# 295302
#
# Disc length: 4221 seconds
#
#
# Revision: 0
# Processed by: cddbd v1.5.1PL2 Copyright (c) Steve Scherf et al.
# Submitted via: FreeRIP 2.91 
#
DISCID=0c107b11
DTITLE=Destiny's Child - The Writing's On The Wall
DYEAR=1999
DGENRE=R&B
TTITLE0=Intro (The Writing's On The Wall)
TTITLE1=So Good
TTITLE2=Bills, Bills, Bills
TTITLE3=Confessions (featuring Missy Elliott)
TTITLE4=Bug A Boo
TTITLE5=Temptation
TTITLE6=Now That She's Gone
TTITLE7=Where'd You Go
TTITLE8=Hey Ladies
TTITLE9=If You Leave (featuring Next)
TTITLE10=Jumpin, Jumpin
TTITLE11=Say My Name
TTITLE12=She Can't Love You
TTITLE13=Stay
TTITLE14=Sweet Sixteen
TTITLE15=Outro (Amazing Grace dedicated to Andretta Tillman)
TTITLE16=Get On The Bus
EXTD=YEAR: 1999
EXTT0=
EXTT1=
EXTT2=
EXTT3=
EXTT4=
EXTT5=
EXTT6=
EXTT7=
EXTT8=
EXTT9=
EXTT10=
EXTT11=
EXTT12=
EXTT13=
EXTT14=
EXTT15=
EXTT16=
PLAYORDER=
